  0
SECTION
  2
BLOCKS
  0
ENDSEC
  0
SECTION
  2
ENTITIES
  0
LINE
  8
0
 10
49.118
 20
21.1756
 11
48.8383
 21
21.4863
  0
LINE
  8
0
 10
48.8383
 20
21.4863
 11
48.5
 21
21.732
  0
LINE
  8
0
 10
48.5
 20
21.732
 11
48.118
 21
21.9021
  0
LINE
  8
0
 10
48.118
 20
21.9021
 11
47.709
 21
21.989
  0
LINE
  8
0
 10
47.709
 20
21.989
 11
-47.709
 21
21.989
  0
LINE
  8
0
 10
-47.709
 20
21.989
 11
-48.118
 21
21.9021
  0
LINE
  8
0
 10
-48.118
 20
21.9021
 11
-48.5
 21
21.732
  0
LINE
  8
0
 10
-48.5
 20
21.732
 11
-48.8383
 21
21.4863
  0
LINE
  8
0
 10
-48.8383
 20
21.4863
 11
-49.118
 21
21.1756
  0
LINE
  8
0
 10
-49.118
 20
21.1756
 11
-49.3271
 21
20.8135
  0
LINE
  8
0
 10
-49.3271
 20
20.8135
 11
-49.4563
 21
20.4158
  0
LINE
  8
0
 10
-49.4563
 20
20.4158
 11
-49.5
 21
20
  0
LINE
  8
0
 10
-49.5
 20
20
 11
-49.5
 21
-20
  0
LINE
  8
0
 10
-49.5
 20
-20
 11
-49.4563
 21
-20.4158
  0
LINE
  8
0
 10
-49.4563
 20
-20.4158
 11
-49.3271
 21
-20.8135
  0
LINE
  8
0
 10
-49.3271
 20
-20.8135
 11
-49.118
 21
-21.1756
  0
LINE
  8
0
 10
-49.118
 20
-21.1756
 11
-48.8383
 21
-21.4863
  0
LINE
  8
0
 10
-48.8383
 20
-21.4863
 11
-48.5
 21
-21.732
  0
LINE
  8
0
 10
-48.5
 20
-21.732
 11
-48.118
 21
-21.9021
  0
LINE
  8
0
 10
-48.118
 20
-21.9021
 11
-47.709
 21
-21.989
  0
LINE
  8
0
 10
-47.709
 20
-21.989
 11
47.709
 21
-21.989
  0
LINE
  8
0
 10
47.709
 20
-21.989
 11
48.118
 21
-21.9021
  0
LINE
  8
0
 10
48.118
 20
-21.9021
 11
48.5
 21
-21.732
  0
LINE
  8
0
 10
48.5
 20
-21.732
 11
48.8383
 21
-21.4863
  0
LINE
  8
0
 10
48.8383
 20
-21.4863
 11
49.118
 21
-21.1756
  0
LINE
  8
0
 10
49.118
 20
-21.1756
 11
49.3271
 21
-20.8135
  0
LINE
  8
0
 10
49.3271
 20
-20.8135
 11
49.4563
 21
-20.4158
  0
LINE
  8
0
 10
49.4563
 20
-20.4158
 11
49.5
 21
-20
  0
LINE
  8
0
 10
49.5
 20
-20
 11
49.5
 21
20
  0
LINE
  8
0
 10
49.5
 20
20
 11
49.4563
 21
20.4158
  0
LINE
  8
0
 10
49.4563
 20
20.4158
 11
49.3271
 21
20.8135
  0
LINE
  8
0
 10
49.3271
 20
20.8135
 11
49.118
 21
21.1756
  0
ENDSEC
  0
SECTION
  2
OBJECTS
  0
DICTIONARY
  0
ENDSEC
  0
EOF
