  0
SECTION
  2
BLOCKS
  0
ENDSEC
  0
SECTION
  2
ENTITIES
  0
LINE
  8
0
 10
51.618
 20
68.6756
 11
51.3383
 21
68.9863
  0
LINE
  8
0
 10
51.3383
 20
68.9863
 11
51
 21
69.232
  0
LINE
  8
0
 10
51
 20
69.232
 11
50.618
 21
69.4021
  0
LINE
  8
0
 10
50.618
 20
69.4021
 11
50.209
 21
69.489
  0
LINE
  8
0
 10
50.209
 20
69.489
 11
-50.209
 21
69.489
  0
LINE
  8
0
 10
-50.209
 20
69.489
 11
-50.618
 21
69.4021
  0
LINE
  8
0
 10
-50.618
 20
69.4021
 11
-51
 21
69.232
  0
LINE
  8
0
 10
-51
 20
69.232
 11
-51.3383
 21
68.9863
  0
LINE
  8
0
 10
-51.3383
 20
68.9863
 11
-51.618
 21
68.6756
  0
LINE
  8
0
 10
-51.618
 20
68.6756
 11
-51.8271
 21
68.3135
  0
LINE
  8
0
 10
-51.8271
 20
68.3135
 11
-51.9563
 21
67.9158
  0
LINE
  8
0
 10
-51.9563
 20
67.9158
 11
-52
 21
67.5
  0
LINE
  8
0
 10
-52
 20
67.5
 11
-52
 21
-67.5
  0
LINE
  8
0
 10
-52
 20
-67.5
 11
-51.9563
 21
-67.9158
  0
LINE
  8
0
 10
-51.9563
 20
-67.9158
 11
-51.8271
 21
-68.3135
  0
LINE
  8
0
 10
-51.8271
 20
-68.3135
 11
-51.618
 21
-68.6756
  0
LINE
  8
0
 10
-51.618
 20
-68.6756
 11
-51.3383
 21
-68.9863
  0
LINE
  8
0
 10
-51.3383
 20
-68.9863
 11
-51
 21
-69.232
  0
LINE
  8
0
 10
-51
 20
-69.232
 11
-50.618
 21
-69.4021
  0
LINE
  8
0
 10
-50.618
 20
-69.4021
 11
-50.209
 21
-69.489
  0
LINE
  8
0
 10
-50.209
 20
-69.489
 11
50.209
 21
-69.489
  0
LINE
  8
0
 10
50.209
 20
-69.489
 11
50.618
 21
-69.4021
  0
LINE
  8
0
 10
50.618
 20
-69.4021
 11
51
 21
-69.232
  0
LINE
  8
0
 10
51
 20
-69.232
 11
51.3383
 21
-68.9863
  0
LINE
  8
0
 10
51.3383
 20
-68.9863
 11
51.618
 21
-68.6756
  0
LINE
  8
0
 10
51.618
 20
-68.6756
 11
51.8271
 21
-68.3135
  0
LINE
  8
0
 10
51.8271
 20
-68.3135
 11
51.9563
 21
-67.9158
  0
LINE
  8
0
 10
51.9563
 20
-67.9158
 11
52
 21
-67.5
  0
LINE
  8
0
 10
52
 20
-67.5
 11
52
 21
67.5
  0
LINE
  8
0
 10
52
 20
67.5
 11
51.9563
 21
67.9158
  0
LINE
  8
0
 10
51.9563
 20
67.9158
 11
51.8271
 21
68.3135
  0
LINE
  8
0
 10
51.8271
 20
68.3135
 11
51.618
 21
68.6756
  0
ENDSEC
  0
SECTION
  2
OBJECTS
  0
DICTIONARY
  0
ENDSEC
  0
EOF
