%TF.GenerationSoftware,KiCad,Pcbnew,(5.1.7)-1*%
%TF.CreationDate,2021-01-28T11:15:27+10:00*%
%TF.ProjectId,TickTacToe,5469636b-5461-4635-946f-652e6b696361,rev?*%
%TF.SameCoordinates,Original*%
%TF.FileFunction,Legend,Bot*%
%TF.FilePolarity,Positive*%
%FSLAX46Y46*%
G04 Gerber Fmt 4.6, Leading zero omitted, Abs format (unit mm)*
G04 Created by KiCad (PCBNEW (5.1.7)-1) date 2021-01-28 11:15:27*
%MOMM*%
%LPD*%
G01*
G04 APERTURE LIST*
%ADD10C,0.150000*%
G04 APERTURE END LIST*
D10*
X84820000Y-139279380D02*
X84724761Y-139279380D01*
X84629523Y-139327000D01*
X84581904Y-139374619D01*
X84534285Y-139469857D01*
X84486666Y-139660333D01*
X84486666Y-139898428D01*
X84534285Y-140088904D01*
X84581904Y-140184142D01*
X84629523Y-140231761D01*
X84724761Y-140279380D01*
X84820000Y-140279380D01*
X84915238Y-140231761D01*
X84962857Y-140184142D01*
X85010476Y-140088904D01*
X85058095Y-139898428D01*
X85058095Y-139660333D01*
X85010476Y-139469857D01*
X84962857Y-139374619D01*
X84915238Y-139327000D01*
X84820000Y-139279380D01*
X83867619Y-139279380D02*
X83772380Y-139279380D01*
X83677142Y-139327000D01*
X83629523Y-139374619D01*
X83581904Y-139469857D01*
X83534285Y-139660333D01*
X83534285Y-139898428D01*
X83581904Y-140088904D01*
X83629523Y-140184142D01*
X83677142Y-140231761D01*
X83772380Y-140279380D01*
X83867619Y-140279380D01*
X83962857Y-140231761D01*
X84010476Y-140184142D01*
X84058095Y-140088904D01*
X84105714Y-139898428D01*
X84105714Y-139660333D01*
X84058095Y-139469857D01*
X84010476Y-139374619D01*
X83962857Y-139327000D01*
X83867619Y-139279380D01*
X82629523Y-139279380D02*
X83105714Y-139279380D01*
X83153333Y-139755571D01*
X83105714Y-139707952D01*
X83010476Y-139660333D01*
X82772380Y-139660333D01*
X82677142Y-139707952D01*
X82629523Y-139755571D01*
X82581904Y-139850809D01*
X82581904Y-140088904D01*
X82629523Y-140184142D01*
X82677142Y-140231761D01*
X82772380Y-140279380D01*
X83010476Y-140279380D01*
X83105714Y-140231761D01*
X83153333Y-140184142D01*
M02*
