M48
METRIC,TZ
T1C0.400
T2C0.500
T3C0.700
T4C0.800
T5C0.900
T6C0.990
%
G90
G05
T1
X40259Y-143256
X42926Y-139192
X43561Y-142621
X43942Y-149352
X45339Y-136271
X45593Y-141224
X46990Y-138430
X47625Y-147701
X48578Y-140526
X51562Y-143637
X54616Y-125863
X56661Y-161398
X57617Y-155870
X60192Y-155708
X60325Y-167894
X60452Y-172720
X60992Y-163989
X61024Y-140526
X61595Y-163068
X62103Y-143002
X62230Y-154940
X62484Y-160528
X64770Y-160909
X64992Y-159798
X65792Y-155454
X65792Y-164471
X67818Y-144907
X68453Y-151257
X68453Y-154559
X69342Y-159131
X69342Y-164084
X70358Y-161417
X70485Y-165862
X71374Y-163322
X73152Y-161417
X73914Y-148717
X74549Y-151257
X75756Y-152209
X80518Y-144907
X80899Y-133731
X82169Y-168021
X84582Y-122809
X85662Y-116142
X86106Y-153035
X86741Y-112522
X93980Y-156972
X95250Y-112522
X98806Y-142113
T2
X38608Y-159782
X38608Y-160782
X63405Y-170196
X63405Y-171196
X64405Y-170196
X64405Y-171196
X65405Y-170196
X65405Y-171196
T3
X107950Y-148590
X107950Y-151130
X113030Y-148590
X113030Y-151130
X93980Y-148590
X93980Y-151130
X118110Y-148590
X118110Y-151130
X86233Y-156972
X86233Y-159512
X99060Y-148590
X99060Y-151130
X89027Y-149733
X89027Y-152273
X104140Y-148590
X104140Y-151130
T4
X70739Y-147400
X70739Y-152400
X77089Y-158703
X77089Y-163703
X50165Y-160528
X50165Y-165408
X61087Y-147400
X61087Y-152400
X51943Y-147654
X51943Y-152654
T5
X87503Y-125476
X90043Y-125476
X103505Y-62738
X106045Y-62738
X120904Y-84328
X123444Y-84328
X41910Y-53721
X44450Y-53721
X58801Y-84582
X61341Y-84582
X72263Y-62992
X74803Y-62992
X121920Y-62611
X124460Y-62611
X58801Y-76454
X61341Y-76454
X81280Y-76454
X83820Y-76454
X39878Y-117094
X42418Y-117094
X78359Y-125603
X80899Y-125603
X90043Y-62865
X92583Y-62865
X89789Y-76581
X92329Y-76581
X120396Y-77216
X122936Y-77216
X120904Y-116205
X123444Y-116205
X49911Y-93472
X52451Y-93472
X72390Y-54229
X74930Y-54229
X111252Y-125222
X113792Y-125222
X40767Y-93599
X43307Y-93599
X72644Y-92456
X75184Y-92456
X41148Y-76327
X43688Y-76327
X104394Y-76581
X106934Y-76581
X90043Y-54483
X92583Y-54483
X89662Y-92456
X92202Y-92456
X122047Y-53975
X124587Y-53975
X81915Y-148844
X81915Y-151384
X121031Y-125222
X123571Y-125222
X59055Y-46228
X61595Y-46228
X57658Y-116840
X60198Y-116840
X58547Y-92710
X61087Y-92710
X72390Y-45847
X74930Y-45847
X49022Y-125857
X51562Y-125857
X89789Y-83947
X92329Y-83947
X86995Y-108458
X89535Y-108458
X101854Y-125222
X104394Y-125222
X41910Y-63119
X44450Y-63119
X113411Y-45593
X115951Y-45593
X41910Y-46228
X44450Y-46228
X49022Y-109220
X51562Y-109220
X81280Y-62865
X83820Y-62865
X50419Y-46228
X52959Y-46228
X69596Y-117221
X72136Y-117221
X39878Y-125730
X42418Y-125730
X104394Y-92583
X106934Y-92583
X103759Y-53975
X106299Y-53975
X101600Y-116459
X104140Y-116459
X122047Y-45466
X124587Y-45466
X57785Y-109474
X60325Y-109474
X112522Y-76581
X115062Y-76581
X40005Y-109220
X42545Y-109220
X81026Y-92456
X83566Y-92456
X58801Y-63119
X61341Y-63119
X69723Y-108458
X72263Y-108458
X104140Y-83947
X106680Y-83947
X90043Y-45847
X92583Y-45847
X101854Y-108458
X104394Y-108458
X112776Y-62738
X115316Y-62738
X112776Y-92710
X115316Y-92710
X72644Y-84201
X75184Y-84201
X121031Y-108331
X123571Y-108331
X40894Y-85344
X43434Y-85344
X72771Y-76454
X75311Y-76454
X50165Y-63119
X52705Y-63119
X57658Y-125349
X60198Y-125349
X103886Y-45466
X106426Y-45466
X87376Y-116967
X89916Y-116967
X111760Y-108585
X114300Y-108585
X69850Y-125476
X72390Y-125476
X120650Y-92583
X123190Y-92583
X49403Y-76327
X51943Y-76327
X81280Y-45847
X83820Y-45847
X58928Y-53848
X61468Y-53848
X78486Y-108331
X81026Y-108331
T6
X76379Y-114717
X76379Y-119217
X82879Y-114717
X82879Y-119217
X48058Y-82459
X48058Y-86959
X54558Y-82459
X54558Y-86959
X111050Y-51725
X111050Y-56225
X117550Y-51725
X117550Y-56225
X47042Y-114590
X47042Y-119090
X53542Y-114590
X53542Y-119090
X108891Y-114082
X108891Y-118582
X115391Y-114082
X115391Y-118582
X48185Y-51598
X48185Y-56098
X54685Y-51598
X54685Y-56098
X89968Y-160691
X89968Y-165191
X96468Y-160691
X96468Y-165191
X110415Y-81570
X110415Y-86070
X116915Y-81570
X116915Y-86070
X79300Y-81697
X79300Y-86197
X85800Y-81697
X85800Y-86197
X79427Y-51852
X79427Y-56352
X85927Y-51852
X85927Y-56352
T0
M30
