%TF.GenerationSoftware,KiCad,Pcbnew,(5.1.7)-1*%
%TF.CreationDate,2021-01-28T11:15:26+10:00*%
%TF.ProjectId,TickTacToe,5469636b-5461-4635-946f-652e6b696361,rev?*%
%TF.SameCoordinates,Original*%
%TF.FileFunction,Copper,L1,Top*%
%TF.FilePolarity,Positive*%
%FSLAX46Y46*%
G04 Gerber Fmt 4.6, Leading zero omitted, Abs format (unit mm)*
G04 Created by KiCad (PCBNEW (5.1.7)-1) date 2021-01-28 11:15:26*
%MOMM*%
%LPD*%
G01*
G04 APERTURE LIST*
%TA.AperFunction,ComponentPad*%
%ADD10O,0.850000X0.850000*%
%TD*%
%TA.AperFunction,ComponentPad*%
%ADD11R,0.850000X0.850000*%
%TD*%
%TA.AperFunction,ComponentPad*%
%ADD12R,1.600000X1.600000*%
%TD*%
%TA.AperFunction,ComponentPad*%
%ADD13C,1.600000*%
%TD*%
%TA.AperFunction,ComponentPad*%
%ADD14R,1.800000X1.800000*%
%TD*%
%TA.AperFunction,ComponentPad*%
%ADD15C,1.800000*%
%TD*%
%TA.AperFunction,ComponentPad*%
%ADD16O,1.400000X1.400000*%
%TD*%
%TA.AperFunction,ComponentPad*%
%ADD17C,1.400000*%
%TD*%
%TA.AperFunction,ComponentPad*%
%ADD18C,1.498000*%
%TD*%
%TA.AperFunction,ComponentPad*%
%ADD19R,1.498000X1.498000*%
%TD*%
%TA.AperFunction,SMDPad,CuDef*%
%ADD20R,1.600000X0.550000*%
%TD*%
%TA.AperFunction,SMDPad,CuDef*%
%ADD21R,0.550000X1.600000*%
%TD*%
%TA.AperFunction,ComponentPad*%
%ADD22C,1.500000*%
%TD*%
%TA.AperFunction,SMDPad,CuDef*%
%ADD23R,1.970000X0.600000*%
%TD*%
%TA.AperFunction,ViaPad*%
%ADD24C,0.800000*%
%TD*%
%TA.AperFunction,Conductor*%
%ADD25C,0.250000*%
%TD*%
G04 APERTURE END LIST*
D10*
%TO.P,J2,2*%
%TO.N,GND*%
X38608000Y-159782000D03*
D11*
%TO.P,J2,1*%
%TO.N,+BATT*%
X38608000Y-160782000D03*
%TD*%
D12*
%TO.P,C1,1*%
%TO.N,Net-(C1-Pad1)*%
X77089000Y-163703000D03*
D13*
%TO.P,C1,2*%
%TO.N,GND*%
X77089000Y-158703000D03*
%TD*%
%TO.P,C2,2*%
%TO.N,GND*%
X51943000Y-147654000D03*
D12*
%TO.P,C2,1*%
%TO.N,+5V*%
X51943000Y-152654000D03*
%TD*%
D13*
%TO.P,C3,2*%
%TO.N,GND*%
X61087000Y-147400000D03*
D12*
%TO.P,C3,1*%
%TO.N,+5V*%
X61087000Y-152400000D03*
%TD*%
%TO.P,C4,1*%
%TO.N,+5V*%
X70739000Y-152400000D03*
D13*
%TO.P,C4,2*%
%TO.N,GND*%
X70739000Y-147400000D03*
%TD*%
D14*
%TO.P,D1,1*%
%TO.N,GND*%
X81915000Y-151384000D03*
D15*
%TO.P,D1,2*%
%TO.N,Net-(D1-Pad2)*%
X81915000Y-148844000D03*
%TD*%
%TO.P,D2,2*%
%TO.N,X3*%
X44450000Y-46228000D03*
D14*
%TO.P,D2,1*%
%TO.N,Net-(D2-Pad1)*%
X41910000Y-46228000D03*
%TD*%
%TO.P,D3,1*%
%TO.N,Net-(D12-Pad2)*%
X41910000Y-53721000D03*
D15*
%TO.P,D3,2*%
%TO.N,C3*%
X44450000Y-53721000D03*
%TD*%
%TO.P,D4,2*%
%TO.N,Net-(D2-Pad1)*%
X44450000Y-63119000D03*
D14*
%TO.P,D4,1*%
%TO.N,D3*%
X41910000Y-63119000D03*
%TD*%
%TO.P,D5,1*%
%TO.N,Net-(D5-Pad1)*%
X41148000Y-76327000D03*
D15*
%TO.P,D5,2*%
%TO.N,X2*%
X43688000Y-76327000D03*
%TD*%
%TO.P,D6,2*%
%TO.N,C2*%
X43434000Y-85344000D03*
D14*
%TO.P,D6,1*%
%TO.N,Net-(D14-Pad2)*%
X40894000Y-85344000D03*
%TD*%
%TO.P,D7,1*%
%TO.N,D3*%
X40767000Y-93599000D03*
D15*
%TO.P,D7,2*%
%TO.N,Net-(D5-Pad1)*%
X43307000Y-93599000D03*
%TD*%
%TO.P,D8,2*%
%TO.N,X1*%
X42545000Y-109220000D03*
D14*
%TO.P,D8,1*%
%TO.N,Net-(D10-Pad2)*%
X40005000Y-109220000D03*
%TD*%
D15*
%TO.P,D9,2*%
%TO.N,C1*%
X42418000Y-117094000D03*
D14*
%TO.P,D9,1*%
%TO.N,Net-(D16-Pad2)*%
X39878000Y-117094000D03*
%TD*%
%TO.P,D10,1*%
%TO.N,D3*%
X39878000Y-125730000D03*
D15*
%TO.P,D10,2*%
%TO.N,Net-(D10-Pad2)*%
X42418000Y-125730000D03*
%TD*%
%TO.P,D11,2*%
%TO.N,C3*%
X52959000Y-46228000D03*
D14*
%TO.P,D11,1*%
%TO.N,Net-(D11-Pad1)*%
X50419000Y-46228000D03*
%TD*%
%TO.P,D12,1*%
%TO.N,D2*%
X50165000Y-63119000D03*
D15*
%TO.P,D12,2*%
%TO.N,Net-(D12-Pad2)*%
X52705000Y-63119000D03*
%TD*%
D14*
%TO.P,D13,1*%
%TO.N,Net-(D13-Pad1)*%
X49403000Y-76327000D03*
D15*
%TO.P,D13,2*%
%TO.N,C2*%
X51943000Y-76327000D03*
%TD*%
%TO.P,D14,2*%
%TO.N,Net-(D14-Pad2)*%
X52451000Y-93472000D03*
D14*
%TO.P,D14,1*%
%TO.N,D2*%
X49911000Y-93472000D03*
%TD*%
%TO.P,D15,1*%
%TO.N,Net-(D15-Pad1)*%
X49022000Y-109220000D03*
D15*
%TO.P,D15,2*%
%TO.N,C1*%
X51562000Y-109220000D03*
%TD*%
%TO.P,D16,2*%
%TO.N,Net-(D16-Pad2)*%
X51562000Y-125857000D03*
D14*
%TO.P,D16,1*%
%TO.N,D2*%
X49022000Y-125857000D03*
%TD*%
D15*
%TO.P,D17,2*%
%TO.N,X3*%
X61595000Y-46228000D03*
D14*
%TO.P,D17,1*%
%TO.N,Net-(D17-Pad1)*%
X59055000Y-46228000D03*
%TD*%
%TO.P,D18,1*%
%TO.N,Net-(D12-Pad2)*%
X58928000Y-53848000D03*
D15*
%TO.P,D18,2*%
%TO.N,C3*%
X61468000Y-53848000D03*
%TD*%
%TO.P,D19,2*%
%TO.N,Net-(D17-Pad1)*%
X61341000Y-63119000D03*
D14*
%TO.P,D19,1*%
%TO.N,D3*%
X58801000Y-63119000D03*
%TD*%
%TO.P,D20,1*%
%TO.N,Net-(D20-Pad1)*%
X58801000Y-76454000D03*
D15*
%TO.P,D20,2*%
%TO.N,X2*%
X61341000Y-76454000D03*
%TD*%
%TO.P,D21,2*%
%TO.N,C2*%
X61341000Y-84582000D03*
D14*
%TO.P,D21,1*%
%TO.N,Net-(D14-Pad2)*%
X58801000Y-84582000D03*
%TD*%
%TO.P,D22,1*%
%TO.N,D3*%
X58547000Y-92710000D03*
D15*
%TO.P,D22,2*%
%TO.N,Net-(D20-Pad1)*%
X61087000Y-92710000D03*
%TD*%
%TO.P,D23,2*%
%TO.N,X1*%
X60325000Y-109474000D03*
D14*
%TO.P,D23,1*%
%TO.N,Net-(D23-Pad1)*%
X57785000Y-109474000D03*
%TD*%
D15*
%TO.P,D24,2*%
%TO.N,C1*%
X60198000Y-116840000D03*
D14*
%TO.P,D24,1*%
%TO.N,Net-(D16-Pad2)*%
X57658000Y-116840000D03*
%TD*%
%TO.P,D25,1*%
%TO.N,D3*%
X57658000Y-125349000D03*
D15*
%TO.P,D25,2*%
%TO.N,Net-(D23-Pad1)*%
X60198000Y-125349000D03*
%TD*%
D14*
%TO.P,D26,1*%
%TO.N,Net-(D26-Pad1)*%
X69723000Y-108458000D03*
D15*
%TO.P,D26,2*%
%TO.N,X1*%
X72263000Y-108458000D03*
%TD*%
%TO.P,D27,2*%
%TO.N,C1*%
X72136000Y-117221000D03*
D14*
%TO.P,D27,1*%
%TO.N,Net-(D27-Pad1)*%
X69596000Y-117221000D03*
%TD*%
%TO.P,D28,1*%
%TO.N,D7*%
X69850000Y-125476000D03*
D15*
%TO.P,D28,2*%
%TO.N,Net-(D26-Pad1)*%
X72390000Y-125476000D03*
%TD*%
D14*
%TO.P,D29,1*%
%TO.N,Net-(D29-Pad1)*%
X72771000Y-76454000D03*
D15*
%TO.P,D29,2*%
%TO.N,X2*%
X75311000Y-76454000D03*
%TD*%
%TO.P,D30,2*%
%TO.N,C2*%
X75184000Y-84201000D03*
D14*
%TO.P,D30,1*%
%TO.N,Net-(D30-Pad1)*%
X72644000Y-84201000D03*
%TD*%
%TO.P,D31,1*%
%TO.N,D7*%
X72644000Y-92456000D03*
D15*
%TO.P,D31,2*%
%TO.N,Net-(D29-Pad1)*%
X75184000Y-92456000D03*
%TD*%
D14*
%TO.P,D32,1*%
%TO.N,Net-(D32-Pad1)*%
X72390000Y-45847000D03*
D15*
%TO.P,D32,2*%
%TO.N,X3*%
X74930000Y-45847000D03*
%TD*%
%TO.P,D33,2*%
%TO.N,C3*%
X74930000Y-54229000D03*
D14*
%TO.P,D33,1*%
%TO.N,Net-(D33-Pad1)*%
X72390000Y-54229000D03*
%TD*%
%TO.P,D34,1*%
%TO.N,D7*%
X72263000Y-62992000D03*
D15*
%TO.P,D34,2*%
%TO.N,Net-(D32-Pad1)*%
X74803000Y-62992000D03*
%TD*%
%TO.P,D35,2*%
%TO.N,C1*%
X81026000Y-108331000D03*
D14*
%TO.P,D35,1*%
%TO.N,Net-(D35-Pad1)*%
X78486000Y-108331000D03*
%TD*%
D15*
%TO.P,D36,2*%
%TO.N,Net-(D27-Pad1)*%
X80899000Y-125603000D03*
D14*
%TO.P,D36,1*%
%TO.N,D6*%
X78359000Y-125603000D03*
%TD*%
%TO.P,D37,1*%
%TO.N,Net-(D37-Pad1)*%
X81280000Y-76454000D03*
D15*
%TO.P,D37,2*%
%TO.N,C2*%
X83820000Y-76454000D03*
%TD*%
%TO.P,D38,2*%
%TO.N,Net-(D30-Pad1)*%
X83566000Y-92456000D03*
D14*
%TO.P,D38,1*%
%TO.N,D6*%
X81026000Y-92456000D03*
%TD*%
%TO.P,D39,1*%
%TO.N,Net-(D39-Pad1)*%
X81280000Y-45847000D03*
D15*
%TO.P,D39,2*%
%TO.N,C3*%
X83820000Y-45847000D03*
%TD*%
%TO.P,D40,2*%
%TO.N,Net-(D33-Pad1)*%
X83820000Y-62865000D03*
D14*
%TO.P,D40,1*%
%TO.N,D6*%
X81280000Y-62865000D03*
%TD*%
D15*
%TO.P,D41,2*%
%TO.N,X1*%
X89535000Y-108458000D03*
D14*
%TO.P,D41,1*%
%TO.N,Net-(D41-Pad1)*%
X86995000Y-108458000D03*
%TD*%
D15*
%TO.P,D42,2*%
%TO.N,C1*%
X89916000Y-116967000D03*
D14*
%TO.P,D42,1*%
%TO.N,Net-(D27-Pad1)*%
X87376000Y-116967000D03*
%TD*%
%TO.P,D43,1*%
%TO.N,D7*%
X87503000Y-125476000D03*
D15*
%TO.P,D43,2*%
%TO.N,Net-(D41-Pad1)*%
X90043000Y-125476000D03*
%TD*%
%TO.P,D44,2*%
%TO.N,X2*%
X92329000Y-76581000D03*
D14*
%TO.P,D44,1*%
%TO.N,Net-(D44-Pad1)*%
X89789000Y-76581000D03*
%TD*%
D15*
%TO.P,D45,2*%
%TO.N,C2*%
X92329000Y-83947000D03*
D14*
%TO.P,D45,1*%
%TO.N,Net-(D30-Pad1)*%
X89789000Y-83947000D03*
%TD*%
%TO.P,D46,1*%
%TO.N,D7*%
X89662000Y-92456000D03*
D15*
%TO.P,D46,2*%
%TO.N,Net-(D44-Pad1)*%
X92202000Y-92456000D03*
%TD*%
D14*
%TO.P,D47,1*%
%TO.N,Net-(D47-Pad1)*%
X90043000Y-45847000D03*
D15*
%TO.P,D47,2*%
%TO.N,X3*%
X92583000Y-45847000D03*
%TD*%
%TO.P,D48,2*%
%TO.N,C3*%
X92583000Y-54483000D03*
D14*
%TO.P,D48,1*%
%TO.N,Net-(D33-Pad1)*%
X90043000Y-54483000D03*
%TD*%
%TO.P,D49,1*%
%TO.N,D7*%
X90043000Y-62865000D03*
D15*
%TO.P,D49,2*%
%TO.N,Net-(D47-Pad1)*%
X92583000Y-62865000D03*
%TD*%
%TO.P,D50,2*%
%TO.N,X3*%
X106426000Y-45466000D03*
D14*
%TO.P,D50,1*%
%TO.N,Net-(D50-Pad1)*%
X103886000Y-45466000D03*
%TD*%
%TO.P,D51,1*%
%TO.N,Net-(D51-Pad1)*%
X103759000Y-53975000D03*
D15*
%TO.P,D51,2*%
%TO.N,C3*%
X106299000Y-53975000D03*
%TD*%
%TO.P,D52,2*%
%TO.N,Net-(D50-Pad1)*%
X106045000Y-62738000D03*
D14*
%TO.P,D52,1*%
%TO.N,D11*%
X103505000Y-62738000D03*
%TD*%
D15*
%TO.P,D53,2*%
%TO.N,X2*%
X106934000Y-76581000D03*
D14*
%TO.P,D53,1*%
%TO.N,Net-(D53-Pad1)*%
X104394000Y-76581000D03*
%TD*%
%TO.P,D54,1*%
%TO.N,Net-(D54-Pad1)*%
X104140000Y-83947000D03*
D15*
%TO.P,D54,2*%
%TO.N,C2*%
X106680000Y-83947000D03*
%TD*%
%TO.P,D55,2*%
%TO.N,Net-(D53-Pad1)*%
X106934000Y-92583000D03*
D14*
%TO.P,D55,1*%
%TO.N,D11*%
X104394000Y-92583000D03*
%TD*%
%TO.P,D56,1*%
%TO.N,Net-(D56-Pad1)*%
X101854000Y-108458000D03*
D15*
%TO.P,D56,2*%
%TO.N,X1*%
X104394000Y-108458000D03*
%TD*%
D14*
%TO.P,D57,1*%
%TO.N,Net-(D57-Pad1)*%
X101600000Y-116459000D03*
D15*
%TO.P,D57,2*%
%TO.N,C1*%
X104140000Y-116459000D03*
%TD*%
%TO.P,D58,2*%
%TO.N,Net-(D56-Pad1)*%
X104394000Y-125222000D03*
D14*
%TO.P,D58,1*%
%TO.N,D11*%
X101854000Y-125222000D03*
%TD*%
%TO.P,D59,1*%
%TO.N,Net-(D59-Pad1)*%
X113411000Y-45593000D03*
D15*
%TO.P,D59,2*%
%TO.N,C3*%
X115951000Y-45593000D03*
%TD*%
D14*
%TO.P,D60,1*%
%TO.N,D10*%
X112776000Y-62738000D03*
D15*
%TO.P,D60,2*%
%TO.N,Net-(D51-Pad1)*%
X115316000Y-62738000D03*
%TD*%
D14*
%TO.P,D61,1*%
%TO.N,Net-(D61-Pad1)*%
X112522000Y-76581000D03*
D15*
%TO.P,D61,2*%
%TO.N,C2*%
X115062000Y-76581000D03*
%TD*%
D14*
%TO.P,D62,1*%
%TO.N,D10*%
X112776000Y-92710000D03*
D15*
%TO.P,D62,2*%
%TO.N,Net-(D54-Pad1)*%
X115316000Y-92710000D03*
%TD*%
%TO.P,D63,2*%
%TO.N,C1*%
X114300000Y-108585000D03*
D14*
%TO.P,D63,1*%
%TO.N,Net-(D63-Pad1)*%
X111760000Y-108585000D03*
%TD*%
%TO.P,D64,1*%
%TO.N,D10*%
X111252000Y-125222000D03*
D15*
%TO.P,D64,2*%
%TO.N,Net-(D57-Pad1)*%
X113792000Y-125222000D03*
%TD*%
%TO.P,D65,2*%
%TO.N,X3*%
X124587000Y-45466000D03*
D14*
%TO.P,D65,1*%
%TO.N,Net-(D65-Pad1)*%
X122047000Y-45466000D03*
%TD*%
%TO.P,D66,1*%
%TO.N,Net-(D51-Pad1)*%
X122047000Y-53975000D03*
D15*
%TO.P,D66,2*%
%TO.N,C3*%
X124587000Y-53975000D03*
%TD*%
%TO.P,D67,2*%
%TO.N,Net-(D65-Pad1)*%
X124460000Y-62611000D03*
D14*
%TO.P,D67,1*%
%TO.N,D11*%
X121920000Y-62611000D03*
%TD*%
D15*
%TO.P,D68,2*%
%TO.N,X2*%
X122936000Y-77216000D03*
D14*
%TO.P,D68,1*%
%TO.N,Net-(D68-Pad1)*%
X120396000Y-77216000D03*
%TD*%
%TO.P,D69,1*%
%TO.N,Net-(D54-Pad1)*%
X120904000Y-84328000D03*
D15*
%TO.P,D69,2*%
%TO.N,C2*%
X123444000Y-84328000D03*
%TD*%
%TO.P,D70,2*%
%TO.N,Net-(D68-Pad1)*%
X123190000Y-92583000D03*
D14*
%TO.P,D70,1*%
%TO.N,D11*%
X120650000Y-92583000D03*
%TD*%
%TO.P,D71,1*%
%TO.N,Net-(D71-Pad1)*%
X121031000Y-108331000D03*
D15*
%TO.P,D71,2*%
%TO.N,X1*%
X123571000Y-108331000D03*
%TD*%
D14*
%TO.P,D72,1*%
%TO.N,Net-(D57-Pad1)*%
X120904000Y-116205000D03*
D15*
%TO.P,D72,2*%
%TO.N,C1*%
X123444000Y-116205000D03*
%TD*%
%TO.P,D73,2*%
%TO.N,Net-(D73-Pad2)*%
X123571000Y-125222000D03*
D14*
%TO.P,D73,1*%
%TO.N,D11*%
X121031000Y-125222000D03*
%TD*%
D11*
%TO.P,J1,1*%
%TO.N,D12*%
X65405000Y-170196000D03*
D10*
%TO.P,J1,2*%
%TO.N,D13*%
X65405000Y-171196000D03*
%TO.P,J1,3*%
%TO.N,RESET*%
X64405000Y-170196000D03*
%TO.P,J1,4*%
%TO.N,+5V*%
X64405000Y-171196000D03*
%TO.P,J1,5*%
%TO.N,D11*%
X63405000Y-170196000D03*
%TO.P,J1,6*%
%TO.N,GND*%
X63405000Y-171196000D03*
%TD*%
D16*
%TO.P,R1,2*%
%TO.N,D13*%
X89027000Y-152273000D03*
D17*
%TO.P,R1,1*%
%TO.N,Net-(D1-Pad2)*%
X89027000Y-149733000D03*
%TD*%
D16*
%TO.P,R2,2*%
%TO.N,+5V*%
X86233000Y-156972000D03*
D17*
%TO.P,R2,1*%
%TO.N,RESET*%
X86233000Y-159512000D03*
%TD*%
%TO.P,R3,1*%
%TO.N,X3*%
X118110000Y-148590000D03*
D16*
%TO.P,R3,2*%
%TO.N,D9*%
X118110000Y-151130000D03*
%TD*%
%TO.P,R4,2*%
%TO.N,D8*%
X113030000Y-151130000D03*
D17*
%TO.P,R4,1*%
%TO.N,C3*%
X113030000Y-148590000D03*
%TD*%
%TO.P,R5,1*%
%TO.N,X2*%
X107950000Y-148590000D03*
D16*
%TO.P,R5,2*%
%TO.N,D5*%
X107950000Y-151130000D03*
%TD*%
D17*
%TO.P,R6,1*%
%TO.N,C2*%
X104140000Y-148590000D03*
D16*
%TO.P,R6,2*%
%TO.N,D4*%
X104140000Y-151130000D03*
%TD*%
%TO.P,R7,2*%
%TO.N,D1*%
X99060000Y-151130000D03*
D17*
%TO.P,R7,1*%
%TO.N,X1*%
X99060000Y-148590000D03*
%TD*%
%TO.P,R8,1*%
%TO.N,C1*%
X93980000Y-148590000D03*
D16*
%TO.P,R8,2*%
%TO.N,D0*%
X93980000Y-151130000D03*
%TD*%
D18*
%TO.P,SW1,3*%
%TO.N,N/C*%
X89968000Y-165191000D03*
D19*
%TO.P,SW1,1*%
%TO.N,RESET*%
X89968000Y-160691000D03*
D18*
%TO.P,SW1,4*%
%TO.N,N/C*%
X96468000Y-165191000D03*
%TO.P,SW1,2*%
%TO.N,GND*%
X96468000Y-160691000D03*
%TD*%
%TO.P,SW2,3*%
%TO.N,N/C*%
X48185000Y-56098000D03*
D19*
%TO.P,SW2,1*%
%TO.N,A0*%
X48185000Y-51598000D03*
D18*
%TO.P,SW2,4*%
%TO.N,N/C*%
X54685000Y-56098000D03*
%TO.P,SW2,2*%
%TO.N,A1*%
X54685000Y-51598000D03*
%TD*%
%TO.P,SW3,3*%
%TO.N,N/C*%
X48058000Y-86959000D03*
D19*
%TO.P,SW3,1*%
%TO.N,D13*%
X48058000Y-82459000D03*
D18*
%TO.P,SW3,4*%
%TO.N,N/C*%
X54558000Y-86959000D03*
%TO.P,SW3,2*%
%TO.N,A1*%
X54558000Y-82459000D03*
%TD*%
%TO.P,SW4,2*%
%TO.N,A1*%
X53542000Y-114590000D03*
%TO.P,SW4,4*%
%TO.N,N/C*%
X53542000Y-119090000D03*
D19*
%TO.P,SW4,1*%
%TO.N,D12*%
X47042000Y-114590000D03*
D18*
%TO.P,SW4,3*%
%TO.N,N/C*%
X47042000Y-119090000D03*
%TD*%
%TO.P,SW5,2*%
%TO.N,A2*%
X85927000Y-51852000D03*
%TO.P,SW5,4*%
%TO.N,N/C*%
X85927000Y-56352000D03*
D19*
%TO.P,SW5,1*%
%TO.N,A0*%
X79427000Y-51852000D03*
D18*
%TO.P,SW5,3*%
%TO.N,N/C*%
X79427000Y-56352000D03*
%TD*%
%TO.P,SW6,2*%
%TO.N,A2*%
X85800000Y-81697000D03*
%TO.P,SW6,4*%
%TO.N,N/C*%
X85800000Y-86197000D03*
D19*
%TO.P,SW6,1*%
%TO.N,D13*%
X79300000Y-81697000D03*
D18*
%TO.P,SW6,3*%
%TO.N,N/C*%
X79300000Y-86197000D03*
%TD*%
%TO.P,SW7,2*%
%TO.N,A2*%
X82879000Y-114717000D03*
%TO.P,SW7,4*%
%TO.N,N/C*%
X82879000Y-119217000D03*
D19*
%TO.P,SW7,1*%
%TO.N,D12*%
X76379000Y-114717000D03*
D18*
%TO.P,SW7,3*%
%TO.N,N/C*%
X76379000Y-119217000D03*
%TD*%
%TO.P,SW8,2*%
%TO.N,A3*%
X117550000Y-51725000D03*
%TO.P,SW8,4*%
%TO.N,N/C*%
X117550000Y-56225000D03*
D19*
%TO.P,SW8,1*%
%TO.N,A0*%
X111050000Y-51725000D03*
D18*
%TO.P,SW8,3*%
%TO.N,N/C*%
X111050000Y-56225000D03*
%TD*%
%TO.P,SW9,3*%
%TO.N,N/C*%
X110415000Y-86070000D03*
D19*
%TO.P,SW9,1*%
%TO.N,D13*%
X110415000Y-81570000D03*
D18*
%TO.P,SW9,4*%
%TO.N,N/C*%
X116915000Y-86070000D03*
%TO.P,SW9,2*%
%TO.N,A3*%
X116915000Y-81570000D03*
%TD*%
%TO.P,SW10,3*%
%TO.N,N/C*%
X108891000Y-118582000D03*
D19*
%TO.P,SW10,1*%
%TO.N,D12*%
X108891000Y-114082000D03*
D18*
%TO.P,SW10,4*%
%TO.N,N/C*%
X115391000Y-118582000D03*
%TO.P,SW10,2*%
%TO.N,A3*%
X115391000Y-114082000D03*
%TD*%
D20*
%TO.P,U1,1*%
%TO.N,D3*%
X58742000Y-158998000D03*
%TO.P,U1,2*%
%TO.N,D4*%
X58742000Y-159798000D03*
%TO.P,U1,3*%
%TO.N,GND*%
X58742000Y-160598000D03*
%TO.P,U1,4*%
%TO.N,+5V*%
X58742000Y-161398000D03*
%TO.P,U1,5*%
%TO.N,GND*%
X58742000Y-162198000D03*
%TO.P,U1,6*%
%TO.N,+5V*%
X58742000Y-162998000D03*
%TO.P,U1,7*%
%TO.N,Net-(U1-Pad7)*%
X58742000Y-163798000D03*
%TO.P,U1,8*%
%TO.N,Net-(U1-Pad8)*%
X58742000Y-164598000D03*
D21*
%TO.P,U1,9*%
%TO.N,D5*%
X60192000Y-166048000D03*
%TO.P,U1,10*%
%TO.N,D6*%
X60992000Y-166048000D03*
%TO.P,U1,11*%
%TO.N,D7*%
X61792000Y-166048000D03*
%TO.P,U1,12*%
%TO.N,D8*%
X62592000Y-166048000D03*
%TO.P,U1,13*%
%TO.N,D9*%
X63392000Y-166048000D03*
%TO.P,U1,14*%
%TO.N,D10*%
X64192000Y-166048000D03*
%TO.P,U1,15*%
%TO.N,D11*%
X64992000Y-166048000D03*
%TO.P,U1,16*%
%TO.N,D12*%
X65792000Y-166048000D03*
D20*
%TO.P,U1,17*%
%TO.N,D13*%
X67242000Y-164598000D03*
%TO.P,U1,18*%
%TO.N,+5V*%
X67242000Y-163798000D03*
%TO.P,U1,19*%
%TO.N,Net-(U1-Pad19)*%
X67242000Y-162998000D03*
%TO.P,U1,20*%
%TO.N,Net-(C1-Pad1)*%
X67242000Y-162198000D03*
%TO.P,U1,21*%
%TO.N,GND*%
X67242000Y-161398000D03*
%TO.P,U1,22*%
%TO.N,Net-(U1-Pad22)*%
X67242000Y-160598000D03*
%TO.P,U1,23*%
%TO.N,A0*%
X67242000Y-159798000D03*
%TO.P,U1,24*%
%TO.N,A1*%
X67242000Y-158998000D03*
D21*
%TO.P,U1,25*%
%TO.N,A2*%
X65792000Y-157548000D03*
%TO.P,U1,26*%
%TO.N,A3*%
X64992000Y-157548000D03*
%TO.P,U1,27*%
%TO.N,A4*%
X64192000Y-157548000D03*
%TO.P,U1,28*%
%TO.N,A5*%
X63392000Y-157548000D03*
%TO.P,U1,29*%
%TO.N,RESET*%
X62592000Y-157548000D03*
%TO.P,U1,30*%
%TO.N,D0*%
X61792000Y-157548000D03*
%TO.P,U1,31*%
%TO.N,D1*%
X60992000Y-157548000D03*
%TO.P,U1,32*%
%TO.N,D2*%
X60192000Y-157548000D03*
%TD*%
D22*
%TO.P,Y1,1*%
%TO.N,Net-(U1-Pad7)*%
X50165000Y-160528000D03*
%TO.P,Y1,2*%
%TO.N,Net-(U1-Pad8)*%
X50165000Y-165408000D03*
%TD*%
D23*
%TO.P,U2,1*%
%TO.N,+5V*%
X45269000Y-155067000D03*
%TO.P,U2,2*%
%TO.N,GND*%
X45269000Y-153797000D03*
%TO.P,U2,3*%
X45269000Y-152527000D03*
%TO.P,U2,4*%
%TO.N,Net-(U2-Pad4)*%
X45269000Y-151257000D03*
%TO.P,U2,5*%
%TO.N,Net-(U2-Pad5)*%
X40329000Y-151257000D03*
%TO.P,U2,6*%
%TO.N,GND*%
X40329000Y-152527000D03*
%TO.P,U2,7*%
X40329000Y-153797000D03*
%TO.P,U2,8*%
%TO.N,+BATT*%
X40329000Y-155067000D03*
%TD*%
D24*
%TO.N,GND*%
X93980000Y-156972000D03*
X86106000Y-153035000D03*
X70358000Y-161417000D03*
X45593000Y-141224000D03*
X46990000Y-138430000D03*
X67818000Y-144907000D03*
X80518000Y-144907000D03*
X98806000Y-142113000D03*
X40259000Y-143256000D03*
X43561000Y-142621000D03*
X82169000Y-168021000D03*
%TO.N,+5V*%
X56661000Y-161398000D03*
X57616999Y-155870001D03*
X70485000Y-165862000D03*
X71374000Y-163322000D03*
%TO.N,D2*%
X60192000Y-155708000D03*
X42926000Y-139192000D03*
X45339000Y-136271000D03*
%TO.N,D7*%
X60325000Y-167894000D03*
%TO.N,D6*%
X61023500Y-140525500D03*
X48577500Y-140525500D03*
X60992000Y-163989000D03*
X43942000Y-149352000D03*
%TO.N,D11*%
X80899000Y-133731000D03*
X62103000Y-143002000D03*
X61595000Y-163068000D03*
X51562000Y-143637000D03*
X47625000Y-147701000D03*
%TO.N,D12*%
X65792000Y-164471000D03*
X73914000Y-148717000D03*
X74549000Y-151257000D03*
X95250000Y-112522000D03*
X86741000Y-112522000D03*
X85661500Y-116141500D03*
%TO.N,D13*%
X69342000Y-164084000D03*
%TO.N,D9*%
X60452000Y-172720000D03*
%TO.N,D1*%
X62230000Y-154940000D03*
%TO.N,D0*%
X64770000Y-160909000D03*
X73152000Y-161417000D03*
X69342000Y-159131000D03*
%TO.N,A0*%
X64992000Y-159798000D03*
%TO.N,A1*%
X54616001Y-125863001D03*
X68453000Y-151257000D03*
X68453000Y-154559000D03*
%TO.N,A2*%
X65792000Y-155454000D03*
X75755500Y-152209500D03*
X84582000Y-122809000D03*
%TO.N,A3*%
X62484000Y-160528000D03*
%TD*%
D25*
%TO.N,Net-(C1-Pad1)*%
X75584000Y-162198000D02*
X67242000Y-162198000D01*
X77089000Y-163703000D02*
X75584000Y-162198000D01*
%TO.N,GND*%
X90516285Y-153508285D02*
X86579285Y-153508285D01*
X93980000Y-156972000D02*
X90516285Y-153508285D01*
X86579285Y-153508285D02*
X86106000Y-153035000D01*
X86106000Y-153035000D02*
X86106000Y-153035000D01*
X70339000Y-161398000D02*
X70358000Y-161417000D01*
X67242000Y-161398000D02*
X70339000Y-161398000D01*
X56387998Y-162198000D02*
X58742000Y-162198000D01*
X55935999Y-161049999D02*
X55935999Y-161746001D01*
X55935999Y-161746001D02*
X56387998Y-162198000D01*
X56387998Y-160598000D02*
X55935999Y-161049999D01*
X58742000Y-160598000D02*
X56387998Y-160598000D01*
X45593000Y-139827000D02*
X46990000Y-138430000D01*
X45593000Y-141224000D02*
X45593000Y-139827000D01*
X67818000Y-144907000D02*
X80518000Y-144907000D01*
X80518000Y-144907000D02*
X80518000Y-144907000D01*
X87893001Y-151247999D02*
X86106000Y-153035000D01*
X98240315Y-142113000D02*
X89105316Y-151247999D01*
X89105316Y-151247999D02*
X87893001Y-151247999D01*
X98806000Y-142113000D02*
X98240315Y-142113000D01*
X51377000Y-147654000D02*
X51943000Y-147654000D01*
X46504000Y-152527000D02*
X51377000Y-147654000D01*
X45269000Y-152527000D02*
X46504000Y-152527000D01*
X45269000Y-152527000D02*
X45269000Y-153797000D01*
X40329000Y-152527000D02*
X40329000Y-153797000D01*
X39018999Y-152451999D02*
X39018999Y-144496001D01*
X39094000Y-152527000D02*
X39018999Y-152451999D01*
X40329000Y-152527000D02*
X39094000Y-152527000D01*
X39018999Y-144496001D02*
X40259000Y-143256000D01*
X40259000Y-143256000D02*
X40259000Y-143256000D01*
X44196000Y-142621000D02*
X45593000Y-141224000D01*
X43561000Y-142621000D02*
X44196000Y-142621000D01*
X64014560Y-172406600D02*
X77783400Y-172406600D01*
X63405000Y-171797040D02*
X64014560Y-172406600D01*
X63405000Y-171196000D02*
X63405000Y-171797040D01*
X77783400Y-172406600D02*
X82169000Y-168021000D01*
X82169000Y-168021000D02*
X82169000Y-168021000D01*
X66459008Y-161398000D02*
X67242000Y-161398000D01*
X66116999Y-161740009D02*
X66459008Y-161398000D01*
X61986597Y-161740009D02*
X66116999Y-161740009D01*
X60844588Y-160598000D02*
X61986597Y-161740009D01*
X58742000Y-160598000D02*
X60844588Y-160598000D01*
X39094000Y-153797000D02*
X40329000Y-153797000D01*
X38608000Y-154283000D02*
X39094000Y-153797000D01*
X38608000Y-159782000D02*
X38608000Y-154283000D01*
%TO.N,+5V*%
X49530000Y-155067000D02*
X51943000Y-152654000D01*
X45269000Y-155067000D02*
X49530000Y-155067000D01*
X60833000Y-152654000D02*
X61087000Y-152400000D01*
X51943000Y-152654000D02*
X60833000Y-152654000D01*
X61087000Y-152400000D02*
X70739000Y-152400000D01*
X57692000Y-161398000D02*
X58742000Y-161398000D01*
X57616999Y-161322999D02*
X57692000Y-161398000D01*
X61087000Y-152400000D02*
X57616999Y-155870001D01*
X59792000Y-162998000D02*
X58742000Y-162998000D01*
X59867001Y-162922999D02*
X59792000Y-162998000D01*
X59792000Y-161398000D02*
X59867001Y-161473001D01*
X58742000Y-161398000D02*
X59792000Y-161398000D01*
X75311000Y-156972000D02*
X86233000Y-156972000D01*
X70739000Y-152400000D02*
X75311000Y-156972000D01*
X66192000Y-163798000D02*
X66040000Y-163646000D01*
X67242000Y-163798000D02*
X66192000Y-163798000D01*
X66040000Y-163646000D02*
X66040000Y-162560000D01*
X65735999Y-162255999D02*
X59867001Y-162255999D01*
X66040000Y-162560000D02*
X65735999Y-162255999D01*
X59867001Y-162255999D02*
X59867001Y-162922999D01*
X59867001Y-161473001D02*
X59867001Y-162255999D01*
X57692000Y-161398000D02*
X56661000Y-161398000D01*
X56661000Y-161398000D02*
X56661000Y-161398000D01*
X57616999Y-155870001D02*
X57616999Y-155870001D01*
X65765001Y-171946001D02*
X70485000Y-167226002D01*
X64553961Y-171946001D02*
X65765001Y-171946001D01*
X64405000Y-171797040D02*
X64553961Y-171946001D01*
X64405000Y-171196000D02*
X64405000Y-171797040D01*
X70485000Y-167226002D02*
X70485000Y-165862000D01*
X68102002Y-163798000D02*
X67242000Y-163798000D01*
X68578002Y-163322000D02*
X68102002Y-163798000D01*
X71374000Y-163322000D02*
X68578002Y-163322000D01*
%TO.N,Net-(D1-Pad2)*%
X82804000Y-149733000D02*
X81915000Y-148844000D01*
X89027000Y-149733000D02*
X82804000Y-149733000D01*
%TO.N,X3*%
X44450000Y-46228000D02*
X47117000Y-43561000D01*
X58928000Y-43561000D02*
X61595000Y-46228000D01*
X47117000Y-43561000D02*
X58928000Y-43561000D01*
X61595000Y-46228000D02*
X64262000Y-43561000D01*
X72644000Y-43561000D02*
X74930000Y-45847000D01*
X64262000Y-43561000D02*
X72644000Y-43561000D01*
X74930000Y-45847000D02*
X77089000Y-43688000D01*
X90424000Y-43688000D02*
X92583000Y-45847000D01*
X77089000Y-43688000D02*
X90424000Y-43688000D01*
X92583000Y-45847000D02*
X94996000Y-43434000D01*
X104394000Y-43434000D02*
X106426000Y-45466000D01*
X94996000Y-43434000D02*
X104394000Y-43434000D01*
X106426000Y-45466000D02*
X108585000Y-43307000D01*
X122428000Y-43307000D02*
X124587000Y-45466000D01*
X108585000Y-43307000D02*
X122428000Y-43307000D01*
%TO.N,Net-(D2-Pad1)*%
X40684999Y-47453001D02*
X41910000Y-46228000D01*
X40684999Y-59353999D02*
X40684999Y-47453001D01*
X44450000Y-63119000D02*
X40684999Y-59353999D01*
%TO.N,Net-(D12-Pad2)*%
X58928000Y-56896000D02*
X52705000Y-63119000D01*
X58928000Y-53848000D02*
X58928000Y-56896000D01*
X51479999Y-61893999D02*
X52705000Y-63119000D01*
X48932999Y-61893999D02*
X51479999Y-61893999D01*
X41910000Y-54871000D02*
X48932999Y-61893999D01*
X41910000Y-53721000D02*
X41910000Y-54871000D01*
%TO.N,C3*%
X113455999Y-46818001D02*
X106299000Y-53975000D01*
X114725999Y-46818001D02*
X113455999Y-46818001D01*
X115951000Y-45593000D02*
X114725999Y-46818001D01*
X124333000Y-53975000D02*
X124587000Y-53975000D01*
X115951000Y-45593000D02*
X124333000Y-53975000D01*
X51733999Y-47453001D02*
X52959000Y-46228000D01*
X49445207Y-47453001D02*
X51733999Y-47453001D01*
X44450000Y-52448208D02*
X49445207Y-47453001D01*
X44450000Y-53721000D02*
X44450000Y-52448208D01*
X61468000Y-53464208D02*
X61468000Y-53848000D01*
X54231792Y-46228000D02*
X61468000Y-53464208D01*
X52959000Y-46228000D02*
X54231792Y-46228000D01*
X73649001Y-52948001D02*
X74930000Y-54229000D01*
X62367999Y-52948001D02*
X73649001Y-52948001D01*
X61468000Y-53848000D02*
X62367999Y-52948001D01*
X82086999Y-47072001D02*
X74930000Y-54229000D01*
X82594999Y-47072001D02*
X82086999Y-47072001D01*
X83820000Y-45847000D02*
X82594999Y-47072001D01*
X92456000Y-54483000D02*
X92583000Y-54483000D01*
X83820000Y-45847000D02*
X92456000Y-54483000D01*
X92583000Y-54483000D02*
X95123000Y-51943000D01*
X104267000Y-51943000D02*
X106299000Y-53975000D01*
X95123000Y-51943000D02*
X104267000Y-51943000D01*
X123234999Y-63199001D02*
X123871999Y-63836001D01*
X123234999Y-55327001D02*
X123234999Y-63199001D01*
X123871999Y-63836001D02*
X130473999Y-63836001D01*
X124587000Y-53975000D02*
X123234999Y-55327001D01*
X130473999Y-131146001D02*
X113030000Y-148590000D01*
X130473999Y-63836001D02*
X130473999Y-131146001D01*
%TO.N,D3*%
X43135001Y-64344001D02*
X41910000Y-63119000D01*
X57575999Y-64344001D02*
X43135001Y-64344001D01*
X58801000Y-63119000D02*
X57575999Y-64344001D01*
X39668999Y-92500999D02*
X40767000Y-93599000D01*
X39668999Y-65360001D02*
X39668999Y-92500999D01*
X41910000Y-63119000D02*
X39668999Y-65360001D01*
X41529000Y-93599000D02*
X40767000Y-93599000D01*
X42754001Y-94824001D02*
X41529000Y-93599000D01*
X56432999Y-94824001D02*
X42754001Y-94824001D01*
X58547000Y-92710000D02*
X56432999Y-94824001D01*
X55924999Y-127082001D02*
X41230001Y-127082001D01*
X41230001Y-127082001D02*
X39878000Y-125730000D01*
X57658000Y-125349000D02*
X55924999Y-127082001D01*
X41639001Y-127491001D02*
X41230001Y-127082001D01*
X41639001Y-153307003D02*
X41639001Y-127491001D01*
X44023999Y-155692001D02*
X41639001Y-153307003D01*
X55436001Y-155692001D02*
X44023999Y-155692001D01*
X58742000Y-158998000D02*
X55436001Y-155692001D01*
%TO.N,X2*%
X59988999Y-75101999D02*
X61341000Y-76454000D01*
X44913001Y-75101999D02*
X59988999Y-75101999D01*
X43688000Y-76327000D02*
X44913001Y-75101999D01*
X61341000Y-76454000D02*
X62865000Y-74930000D01*
X73787000Y-74930000D02*
X75311000Y-76454000D01*
X62865000Y-74930000D02*
X73787000Y-74930000D01*
X75311000Y-76454000D02*
X75311000Y-75819000D01*
X90976999Y-75228999D02*
X92329000Y-76581000D01*
X75901001Y-75228999D02*
X90976999Y-75228999D01*
X75311000Y-75819000D02*
X75901001Y-75228999D01*
X92329000Y-76581000D02*
X93980000Y-74930000D01*
X105283000Y-74930000D02*
X106934000Y-76581000D01*
X93980000Y-74930000D02*
X105283000Y-74930000D01*
X106934000Y-76581000D02*
X108585000Y-74930000D01*
X120650000Y-74930000D02*
X122936000Y-77216000D01*
X108585000Y-74930000D02*
X120650000Y-74930000D01*
%TO.N,C2*%
X51943000Y-76490998D02*
X51943000Y-76327000D01*
X43434000Y-84999998D02*
X51943000Y-76490998D01*
X43434000Y-85344000D02*
X43434000Y-84999998D01*
X53086000Y-76327000D02*
X61341000Y-84582000D01*
X51943000Y-76327000D02*
X53086000Y-76327000D01*
X61341000Y-84582000D02*
X63373000Y-82550000D01*
X73533000Y-82550000D02*
X75184000Y-84201000D01*
X63373000Y-82550000D02*
X73533000Y-82550000D01*
X75184000Y-82928208D02*
X80433207Y-77679001D01*
X82594999Y-77679001D02*
X83820000Y-76454000D01*
X80433207Y-77679001D02*
X82594999Y-77679001D01*
X75184000Y-84201000D02*
X75184000Y-82928208D01*
X84836000Y-76454000D02*
X92329000Y-83947000D01*
X83820000Y-76454000D02*
X84836000Y-76454000D01*
X113836999Y-77806001D02*
X115062000Y-76581000D01*
X111423999Y-77806001D02*
X113836999Y-77806001D01*
X106680000Y-82550000D02*
X111423999Y-77806001D01*
X106680000Y-83947000D02*
X106680000Y-82550000D01*
X123444000Y-83690208D02*
X123444000Y-84328000D01*
X116334792Y-76581000D02*
X123444000Y-83690208D01*
X115062000Y-76581000D02*
X116334792Y-76581000D01*
X93554001Y-82721999D02*
X92329000Y-83947000D01*
X105454999Y-82721999D02*
X93554001Y-82721999D01*
X106680000Y-83947000D02*
X105454999Y-82721999D01*
%TO.N,Net-(D14-Pad2)*%
X46646999Y-92246999D02*
X51225999Y-92246999D01*
X40894000Y-86494000D02*
X46646999Y-92246999D01*
X51225999Y-92246999D02*
X52451000Y-93472000D01*
X40894000Y-85344000D02*
X40894000Y-86494000D01*
X58801000Y-87122000D02*
X52451000Y-93472000D01*
X58801000Y-84582000D02*
X58801000Y-87122000D01*
%TO.N,X1*%
X42545000Y-109220000D02*
X44450000Y-107315000D01*
X58166000Y-107315000D02*
X60325000Y-109474000D01*
X44450000Y-107315000D02*
X58166000Y-107315000D01*
X71037999Y-107232999D02*
X72263000Y-108458000D01*
X62566001Y-107232999D02*
X71037999Y-107232999D01*
X60325000Y-109474000D02*
X62566001Y-107232999D01*
X72263000Y-108458000D02*
X73660000Y-107061000D01*
X88138000Y-107061000D02*
X89535000Y-108458000D01*
X73660000Y-107061000D02*
X88138000Y-107061000D01*
X89535000Y-108458000D02*
X91313000Y-106680000D01*
X102616000Y-106680000D02*
X104394000Y-108458000D01*
X91313000Y-106680000D02*
X102616000Y-106680000D01*
X104394000Y-108458000D02*
X106172000Y-106680000D01*
X123416002Y-108331000D02*
X123571000Y-108331000D01*
X121765002Y-106680000D02*
X123416002Y-108331000D01*
X106172000Y-106680000D02*
X121765002Y-106680000D01*
%TO.N,Net-(D10-Pad2)*%
X38652999Y-110572001D02*
X40005000Y-109220000D01*
X38652999Y-121964999D02*
X38652999Y-110572001D01*
X42418000Y-125730000D02*
X38652999Y-121964999D01*
%TO.N,C1*%
X49066999Y-110445001D02*
X42418000Y-117094000D01*
X50336999Y-110445001D02*
X49066999Y-110445001D01*
X51562000Y-109220000D02*
X50336999Y-110445001D01*
X52834792Y-109220000D02*
X60198000Y-116583208D01*
X60198000Y-116583208D02*
X60198000Y-116840000D01*
X51562000Y-109220000D02*
X52834792Y-109220000D01*
X79800999Y-109556001D02*
X78528207Y-109556001D01*
X72136000Y-115948208D02*
X72136000Y-117221000D01*
X78528207Y-109556001D02*
X72136000Y-115948208D01*
X81026000Y-108331000D02*
X79800999Y-109556001D01*
X89662000Y-116967000D02*
X89916000Y-116967000D01*
X81026000Y-108331000D02*
X89662000Y-116967000D01*
X89916000Y-116967000D02*
X92583000Y-114300000D01*
X101981000Y-114300000D02*
X104140000Y-116459000D01*
X92583000Y-114300000D02*
X101981000Y-114300000D01*
X104140000Y-116459000D02*
X106680000Y-113919000D01*
X113074999Y-109810001D02*
X114300000Y-108585000D01*
X111169999Y-109810001D02*
X113074999Y-109810001D01*
X107061000Y-113919000D02*
X111169999Y-109810001D01*
X106680000Y-113919000D02*
X107061000Y-113919000D01*
X115824000Y-108585000D02*
X123444000Y-116205000D01*
X114300000Y-108585000D02*
X115824000Y-108585000D01*
X95005001Y-147564999D02*
X93980000Y-148590000D01*
X101073003Y-147564999D02*
X95005001Y-147564999D01*
X122256001Y-126382001D02*
X101073003Y-147564999D01*
X122256001Y-117392999D02*
X122256001Y-126382001D01*
X123444000Y-116205000D02*
X122256001Y-117392999D01*
%TO.N,Net-(D16-Pad2)*%
X57658000Y-119761000D02*
X51562000Y-125857000D01*
X57658000Y-116840000D02*
X57658000Y-119761000D01*
X45869001Y-120164001D02*
X51562000Y-125857000D01*
X42948001Y-120164001D02*
X45869001Y-120164001D01*
X39878000Y-117094000D02*
X42948001Y-120164001D01*
%TO.N,D2*%
X60192000Y-157548000D02*
X60192000Y-155708000D01*
X60192000Y-155708000D02*
X60192000Y-155708000D01*
X42926000Y-138684000D02*
X42926000Y-139192000D01*
X45339000Y-136271000D02*
X42926000Y-138684000D01*
%TO.N,Net-(D23-Pad1)*%
X61423001Y-113112001D02*
X57785000Y-109474000D01*
X61423001Y-124123999D02*
X61423001Y-113112001D01*
X60198000Y-125349000D02*
X61423001Y-124123999D01*
%TO.N,Net-(D27-Pad1)*%
X73742001Y-118446001D02*
X80899000Y-125603000D01*
X70821001Y-118446001D02*
X73742001Y-118446001D01*
X69596000Y-117221000D02*
X70821001Y-118446001D01*
X80899000Y-123444000D02*
X87376000Y-116967000D01*
X80899000Y-125603000D02*
X80899000Y-123444000D01*
%TO.N,D7*%
X88436999Y-93681001D02*
X89662000Y-92456000D01*
X73869001Y-93681001D02*
X88436999Y-93681001D01*
X72644000Y-92456000D02*
X73869001Y-93681001D01*
X60806002Y-167894000D02*
X60325000Y-167894000D01*
X61792000Y-166908002D02*
X60806002Y-167894000D01*
X61792000Y-166048000D02*
X61792000Y-166908002D01*
%TO.N,Net-(D30-Pad1)*%
X82340999Y-91230999D02*
X83566000Y-92456000D01*
X79673999Y-91230999D02*
X82340999Y-91230999D01*
X72644000Y-84201000D02*
X79673999Y-91230999D01*
X73869001Y-85426001D02*
X72644000Y-84201000D01*
X75772001Y-85426001D02*
X73869001Y-85426001D01*
X76409001Y-84789001D02*
X75772001Y-85426001D01*
X76409001Y-82504997D02*
X76409001Y-84789001D01*
X78290999Y-80622999D02*
X76409001Y-82504997D01*
X86464999Y-80622999D02*
X78290999Y-80622999D01*
X89789000Y-83947000D02*
X86464999Y-80622999D01*
%TO.N,Net-(D33-Pad1)*%
X83820000Y-60706000D02*
X90043000Y-54483000D01*
X83820000Y-62865000D02*
X83820000Y-60706000D01*
X78867000Y-60706000D02*
X83820000Y-60706000D01*
X72390000Y-54229000D02*
X78867000Y-60706000D01*
%TO.N,D6*%
X78359000Y-125603000D02*
X75946000Y-125603000D01*
X75946000Y-125603000D02*
X61023500Y-140525500D01*
X61023500Y-140525500D02*
X60960000Y-140589000D01*
X48577500Y-140525500D02*
X48577500Y-144716500D01*
X48577500Y-144716500D02*
X43942000Y-149352000D01*
X60992000Y-166048000D02*
X60992000Y-163989000D01*
X60992000Y-163989000D02*
X60992000Y-163989000D01*
X43942000Y-149352000D02*
X43942000Y-149352000D01*
%TO.N,Net-(D51-Pad1)*%
X111296999Y-61512999D02*
X103759000Y-53975000D01*
X114090999Y-61512999D02*
X111296999Y-61512999D01*
X115316000Y-62738000D02*
X114090999Y-61512999D01*
X115316000Y-60706000D02*
X122047000Y-53975000D01*
X115316000Y-62738000D02*
X115316000Y-60706000D01*
%TO.N,D11*%
X64992000Y-166908002D02*
X64992000Y-166048000D01*
X63405000Y-168495002D02*
X64992000Y-166908002D01*
X63405000Y-170196000D02*
X63405000Y-168495002D01*
X119805999Y-126447001D02*
X121031000Y-125222000D01*
X103079001Y-126447001D02*
X119805999Y-126447001D01*
X101854000Y-125222000D02*
X103079001Y-126447001D01*
X106196011Y-94385011D02*
X104394000Y-92583000D01*
X118847989Y-94385011D02*
X106196011Y-94385011D01*
X120650000Y-92583000D02*
X118847989Y-94385011D01*
X80899000Y-133731000D02*
X74295000Y-133731000D01*
X74295000Y-133731000D02*
X65024000Y-143002000D01*
X65024000Y-143002000D02*
X62103000Y-143002000D01*
X62103000Y-143002000D02*
X62103000Y-143002000D01*
X64992000Y-166048000D02*
X64992000Y-163481000D01*
X64992000Y-163481000D02*
X64992000Y-163481000D01*
X64774999Y-163263999D02*
X61790999Y-163263999D01*
X64992000Y-163481000D02*
X64774999Y-163263999D01*
X61790999Y-163263999D02*
X61595000Y-163068000D01*
X61595000Y-163068000D02*
X61595000Y-163068000D01*
X47625000Y-147574000D02*
X47625000Y-147701000D01*
X51562000Y-143637000D02*
X47625000Y-147574000D01*
%TO.N,Net-(D54-Pad1)*%
X115316000Y-89916000D02*
X120904000Y-84328000D01*
X115316000Y-92710000D02*
X115316000Y-89916000D01*
X110109000Y-89916000D02*
X115316000Y-89916000D01*
X104140000Y-83947000D02*
X110109000Y-89916000D01*
%TO.N,Net-(D57-Pad1)*%
X120904000Y-118110000D02*
X113792000Y-125222000D01*
X120904000Y-116205000D02*
X120904000Y-118110000D01*
X112566999Y-123996999D02*
X113792000Y-125222000D01*
X107987999Y-123996999D02*
X112566999Y-123996999D01*
X101600000Y-117609000D02*
X107987999Y-123996999D01*
X101600000Y-116459000D02*
X101600000Y-117609000D01*
%TO.N,D10*%
X91042001Y-161700001D02*
X80796001Y-171946001D01*
X91042001Y-159681999D02*
X91042001Y-161700001D01*
X72933704Y-153958294D02*
X85318296Y-153958294D01*
X82124001Y-144767997D02*
X72933704Y-153958294D01*
X82124001Y-124193997D02*
X82124001Y-144767997D01*
X84233999Y-122083999D02*
X82124001Y-124193997D01*
X103069001Y-122083999D02*
X84233999Y-122083999D01*
X106207002Y-125222000D02*
X103069001Y-122083999D01*
X85318296Y-153958294D02*
X91042001Y-159681999D01*
X111252000Y-125222000D02*
X106207002Y-125222000D01*
X80796001Y-171946001D02*
X80783999Y-171946001D01*
X80743002Y-171986998D02*
X80743002Y-172994991D01*
X80783999Y-171946001D02*
X80743002Y-171986998D01*
X61488991Y-172994991D02*
X62971009Y-172994991D01*
X61468000Y-169518592D02*
X61468000Y-172974000D01*
X61468000Y-172974000D02*
X61488991Y-172994991D01*
X61745000Y-169518592D02*
X61468000Y-169518592D01*
X62992000Y-172974000D02*
X80743002Y-172974000D01*
X62971009Y-172994991D02*
X62992000Y-172974000D01*
X64192000Y-167071592D02*
X61745000Y-169518592D01*
X64192000Y-166048000D02*
X64192000Y-167071592D01*
%TO.N,Net-(D65-Pad1)*%
X125812001Y-49231001D02*
X122047000Y-45466000D01*
X125812001Y-61258999D02*
X125812001Y-49231001D01*
X124460000Y-62611000D02*
X125812001Y-61258999D01*
%TO.N,D12*%
X65792000Y-166048000D02*
X65792000Y-164471000D01*
X65792000Y-164471000D02*
X65792000Y-164471000D01*
X73914000Y-148717000D02*
X73914000Y-150622000D01*
X73914000Y-150622000D02*
X74549000Y-151257000D01*
X74549000Y-151257000D02*
X74549000Y-151257000D01*
X95250000Y-112522000D02*
X86741000Y-112522000D01*
X86741000Y-112522000D02*
X86741000Y-112522000D01*
X77803500Y-116141500D02*
X76379000Y-114717000D01*
X85661500Y-116141500D02*
X77803500Y-116141500D01*
%TO.N,D13*%
X67242000Y-164598000D02*
X68574000Y-164598000D01*
X69088000Y-164084000D02*
X68574000Y-164598000D01*
X69342000Y-164084000D02*
X69088000Y-164084000D01*
X88744001Y-91141001D02*
X79300000Y-81697000D01*
X122129001Y-87710001D02*
X115904001Y-93935001D01*
X122129001Y-83167999D02*
X122129001Y-87710001D01*
X115904001Y-93935001D02*
X114727999Y-93935001D01*
X122064001Y-83102999D02*
X122129001Y-83167999D01*
X109881001Y-83102999D02*
X122064001Y-83102999D01*
X114727999Y-93935001D02*
X114090999Y-93298001D01*
X110415000Y-82569000D02*
X109881001Y-83102999D01*
X114090999Y-93298001D02*
X114090999Y-91141001D01*
X110415000Y-81570000D02*
X110415000Y-82569000D01*
X43947999Y-86569001D02*
X48058000Y-82459000D01*
X42845999Y-86569001D02*
X43947999Y-86569001D01*
X42208999Y-85932001D02*
X42845999Y-86569001D01*
X42208999Y-84755999D02*
X42208999Y-85932001D01*
X42462999Y-84501999D02*
X42208999Y-84755999D01*
X43722008Y-74479990D02*
X42462999Y-75738999D01*
X124669001Y-77135999D02*
X122012992Y-74479990D01*
X124032001Y-85553001D02*
X124669001Y-84916001D01*
X42462999Y-75738999D02*
X42462999Y-84501999D01*
X122012992Y-74479990D02*
X43722008Y-74479990D01*
X122855999Y-85553001D02*
X124032001Y-85553001D01*
X122218999Y-83101617D02*
X122218999Y-84916001D01*
X124669001Y-84916001D02*
X124669001Y-77135999D01*
X121761383Y-82644001D02*
X122218999Y-83101617D01*
X122218999Y-84916001D02*
X122855999Y-85553001D01*
X111489001Y-82644001D02*
X121761383Y-82644001D01*
X110415000Y-81570000D02*
X111489001Y-82644001D01*
X91684999Y-149615001D02*
X89027000Y-152273000D01*
X124796001Y-125810001D02*
X100991001Y-149615001D01*
X124796001Y-107742999D02*
X124796001Y-125810001D01*
X123282992Y-106229990D02*
X124796001Y-107742999D01*
X110166990Y-106229990D02*
X123282992Y-106229990D01*
X100991001Y-149615001D02*
X91684999Y-149615001D01*
X95078001Y-91141001D02*
X110166990Y-106229990D01*
X114090999Y-91141001D02*
X95078001Y-91141001D01*
X95078001Y-91141001D02*
X88744001Y-91141001D01*
%TO.N,RESET*%
X87412000Y-160691000D02*
X86233000Y-159512000D01*
X89968000Y-160691000D02*
X87412000Y-160691000D01*
X86233000Y-159512000D02*
X85533001Y-160211999D01*
X79564001Y-163413001D02*
X79564001Y-160211999D01*
X78149001Y-164828001D02*
X79564001Y-163413001D01*
X64405000Y-169594960D02*
X69171959Y-164828001D01*
X69171959Y-164828001D02*
X78149001Y-164828001D01*
X64405000Y-170196000D02*
X64405000Y-169594960D01*
X85533001Y-160211999D02*
X79564001Y-160211999D01*
X71102001Y-153525001D02*
X71055001Y-153572001D01*
X62955001Y-153379001D02*
X63101001Y-153525001D01*
X71055001Y-153572001D02*
X71055001Y-160211999D01*
X62955001Y-156324997D02*
X62955001Y-153379001D01*
X62592000Y-156687998D02*
X62955001Y-156324997D01*
X63101001Y-153525001D02*
X71102001Y-153525001D01*
X62592000Y-157548000D02*
X62592000Y-156687998D01*
X79564001Y-160211999D02*
X71055001Y-160211999D01*
%TO.N,D9*%
X63392000Y-166908002D02*
X63392000Y-166048000D01*
X60452000Y-169848002D02*
X63392000Y-166908002D01*
X60452000Y-172720000D02*
X60452000Y-169848002D01*
%TO.N,D8*%
X62592000Y-166908002D02*
X62592000Y-166048000D01*
X59726999Y-173068001D02*
X59726999Y-169773003D01*
X60103999Y-173445001D02*
X59726999Y-173068001D01*
X59726999Y-169773003D02*
X62592000Y-166908002D01*
X104098009Y-149654989D02*
X111554989Y-149654989D01*
X103114999Y-150637999D02*
X104098009Y-149654989D01*
X103114999Y-156954479D02*
X103114999Y-150637999D01*
X89625001Y-170444477D02*
X103114999Y-156954479D01*
X89625001Y-173445001D02*
X89625001Y-170444477D01*
X89803521Y-173445001D02*
X89625001Y-173445001D01*
X111554989Y-149654989D02*
X113030000Y-151130000D01*
X89625001Y-173445001D02*
X60103999Y-173445001D01*
%TO.N,D5*%
X59276989Y-173254401D02*
X59276989Y-166963011D01*
X59917598Y-173895010D02*
X59276989Y-173254401D01*
X89989921Y-173895011D02*
X59917598Y-173895010D01*
X59276989Y-166963011D02*
X60192000Y-166048000D01*
X107950000Y-155934932D02*
X107950000Y-151130000D01*
X89989921Y-173895011D02*
X107950000Y-155934932D01*
%TO.N,D4*%
X51790019Y-174345019D02*
X90176321Y-174345019D01*
X45466000Y-168021000D02*
X51790019Y-174345019D01*
X45466000Y-157861000D02*
X45466000Y-168021000D01*
X47117000Y-156210000D02*
X45466000Y-157861000D01*
X53975000Y-156210000D02*
X47117000Y-156210000D01*
X57563000Y-159798000D02*
X53975000Y-156210000D01*
X58742000Y-159798000D02*
X57563000Y-159798000D01*
X105165001Y-150104999D02*
X104140000Y-151130000D01*
X108442001Y-150104999D02*
X105165001Y-150104999D01*
X108975001Y-150637999D02*
X108442001Y-150104999D01*
X108975001Y-155546339D02*
X108975001Y-150637999D01*
X90176321Y-174345019D02*
X108975001Y-155546339D01*
%TO.N,D1*%
X60992000Y-156178000D02*
X62230000Y-154940000D01*
X60992000Y-157548000D02*
X60992000Y-156178000D01*
%TO.N,D0*%
X61758999Y-158631001D02*
X61758999Y-160876001D01*
X61792000Y-158598000D02*
X61758999Y-158631001D01*
X61792000Y-157548000D02*
X61792000Y-158598000D01*
X71623592Y-161417000D02*
X69342000Y-159135408D01*
X73152000Y-161417000D02*
X71623592Y-161417000D01*
X69342000Y-159135408D02*
X69342000Y-159131000D01*
X69342000Y-159131000D02*
X69342000Y-159131000D01*
X62135999Y-161253001D02*
X64425999Y-161253001D01*
X62074499Y-161191501D02*
X62135999Y-161253001D01*
X61758999Y-160876001D02*
X62074499Y-161191501D01*
X64425999Y-161253001D02*
X64770000Y-160909000D01*
X62074499Y-161191501D02*
X62172998Y-161290000D01*
%TO.N,A0*%
X67242000Y-159798000D02*
X64992000Y-159798000D01*
X64992000Y-159798000D02*
X64992000Y-159798000D01*
X64992000Y-159798000D02*
X64992000Y-159798000D01*
%TO.N,A1*%
X58972999Y-124278997D02*
X58972999Y-141776999D01*
X58818001Y-124123999D02*
X58972999Y-124278997D01*
X56355003Y-124123999D02*
X58818001Y-124123999D01*
X54616001Y-125863001D02*
X56355003Y-124123999D01*
X58972999Y-141776999D02*
X68453000Y-151257000D01*
X68453000Y-151257000D02*
X68453000Y-151257000D01*
X68453000Y-157787000D02*
X67242000Y-158998000D01*
X68453000Y-154559000D02*
X68453000Y-157787000D01*
%TO.N,A2*%
X65792000Y-157548000D02*
X65792000Y-155454000D01*
X65792000Y-155454000D02*
X65792000Y-155454000D01*
X75755500Y-152209500D02*
X84582000Y-143383000D01*
X84582000Y-143383000D02*
X84582000Y-122809000D01*
X84582000Y-122809000D02*
X84582000Y-122809000D01*
%TO.N,A3*%
X63062000Y-160528000D02*
X62484000Y-160528000D01*
X64992000Y-158598000D02*
X63062000Y-160528000D01*
X64992000Y-157548000D02*
X64992000Y-158598000D01*
%TO.N,Net-(U1-Pad7)*%
X53435000Y-163798000D02*
X50165000Y-160528000D01*
X58742000Y-163798000D02*
X53435000Y-163798000D01*
%TO.N,Net-(U1-Pad8)*%
X50975000Y-164598000D02*
X50165000Y-165408000D01*
X58742000Y-164598000D02*
X50975000Y-164598000D01*
%TO.N,+BATT*%
X40329000Y-159736000D02*
X40329000Y-155067000D01*
X39283000Y-160782000D02*
X40329000Y-159736000D01*
X38608000Y-160782000D02*
X39283000Y-160782000D01*
%TD*%
M02*
