%TF.GenerationSoftware,KiCad,Pcbnew,(5.1.7)-1*%
%TF.CreationDate,2021-01-28T11:15:27+10:00*%
%TF.ProjectId,TickTacToe,5469636b-5461-4635-946f-652e6b696361,rev?*%
%TF.SameCoordinates,Original*%
%TF.FileFunction,Soldermask,Bot*%
%TF.FilePolarity,Negative*%
%FSLAX46Y46*%
G04 Gerber Fmt 4.6, Leading zero omitted, Abs format (unit mm)*
G04 Created by KiCad (PCBNEW (5.1.7)-1) date 2021-01-28 11:15:27*
%MOMM*%
%LPD*%
G01*
G04 APERTURE LIST*
%ADD10O,0.850000X0.850000*%
%ADD11R,0.850000X0.850000*%
%ADD12R,1.600000X1.600000*%
%ADD13C,1.600000*%
%ADD14R,1.800000X1.800000*%
%ADD15C,1.800000*%
%ADD16O,1.400000X1.400000*%
%ADD17C,1.400000*%
%ADD18C,1.498000*%
%ADD19R,1.498000X1.498000*%
%ADD20C,1.500000*%
G04 APERTURE END LIST*
D10*
%TO.C,J2*%
X38608000Y-159782000D03*
D11*
X38608000Y-160782000D03*
%TD*%
D12*
%TO.C,C1*%
X77089000Y-163703000D03*
D13*
X77089000Y-158703000D03*
%TD*%
%TO.C,C2*%
X51943000Y-147654000D03*
D12*
X51943000Y-152654000D03*
%TD*%
D13*
%TO.C,C3*%
X61087000Y-147400000D03*
D12*
X61087000Y-152400000D03*
%TD*%
%TO.C,C4*%
X70739000Y-152400000D03*
D13*
X70739000Y-147400000D03*
%TD*%
D14*
%TO.C,D1*%
X81915000Y-151384000D03*
D15*
X81915000Y-148844000D03*
%TD*%
%TO.C,D2*%
X44450000Y-46228000D03*
D14*
X41910000Y-46228000D03*
%TD*%
%TO.C,D3*%
X41910000Y-53721000D03*
D15*
X44450000Y-53721000D03*
%TD*%
%TO.C,D4*%
X44450000Y-63119000D03*
D14*
X41910000Y-63119000D03*
%TD*%
%TO.C,D5*%
X41148000Y-76327000D03*
D15*
X43688000Y-76327000D03*
%TD*%
%TO.C,D6*%
X43434000Y-85344000D03*
D14*
X40894000Y-85344000D03*
%TD*%
%TO.C,D7*%
X40767000Y-93599000D03*
D15*
X43307000Y-93599000D03*
%TD*%
%TO.C,D8*%
X42545000Y-109220000D03*
D14*
X40005000Y-109220000D03*
%TD*%
D15*
%TO.C,D9*%
X42418000Y-117094000D03*
D14*
X39878000Y-117094000D03*
%TD*%
%TO.C,D10*%
X39878000Y-125730000D03*
D15*
X42418000Y-125730000D03*
%TD*%
%TO.C,D11*%
X52959000Y-46228000D03*
D14*
X50419000Y-46228000D03*
%TD*%
%TO.C,D12*%
X50165000Y-63119000D03*
D15*
X52705000Y-63119000D03*
%TD*%
D14*
%TO.C,D13*%
X49403000Y-76327000D03*
D15*
X51943000Y-76327000D03*
%TD*%
%TO.C,D14*%
X52451000Y-93472000D03*
D14*
X49911000Y-93472000D03*
%TD*%
%TO.C,D15*%
X49022000Y-109220000D03*
D15*
X51562000Y-109220000D03*
%TD*%
%TO.C,D16*%
X51562000Y-125857000D03*
D14*
X49022000Y-125857000D03*
%TD*%
D15*
%TO.C,D17*%
X61595000Y-46228000D03*
D14*
X59055000Y-46228000D03*
%TD*%
%TO.C,D18*%
X58928000Y-53848000D03*
D15*
X61468000Y-53848000D03*
%TD*%
%TO.C,D19*%
X61341000Y-63119000D03*
D14*
X58801000Y-63119000D03*
%TD*%
%TO.C,D20*%
X58801000Y-76454000D03*
D15*
X61341000Y-76454000D03*
%TD*%
%TO.C,D21*%
X61341000Y-84582000D03*
D14*
X58801000Y-84582000D03*
%TD*%
%TO.C,D22*%
X58547000Y-92710000D03*
D15*
X61087000Y-92710000D03*
%TD*%
%TO.C,D23*%
X60325000Y-109474000D03*
D14*
X57785000Y-109474000D03*
%TD*%
D15*
%TO.C,D24*%
X60198000Y-116840000D03*
D14*
X57658000Y-116840000D03*
%TD*%
%TO.C,D25*%
X57658000Y-125349000D03*
D15*
X60198000Y-125349000D03*
%TD*%
D14*
%TO.C,D26*%
X69723000Y-108458000D03*
D15*
X72263000Y-108458000D03*
%TD*%
%TO.C,D27*%
X72136000Y-117221000D03*
D14*
X69596000Y-117221000D03*
%TD*%
%TO.C,D28*%
X69850000Y-125476000D03*
D15*
X72390000Y-125476000D03*
%TD*%
D14*
%TO.C,D29*%
X72771000Y-76454000D03*
D15*
X75311000Y-76454000D03*
%TD*%
%TO.C,D30*%
X75184000Y-84201000D03*
D14*
X72644000Y-84201000D03*
%TD*%
%TO.C,D31*%
X72644000Y-92456000D03*
D15*
X75184000Y-92456000D03*
%TD*%
D14*
%TO.C,D32*%
X72390000Y-45847000D03*
D15*
X74930000Y-45847000D03*
%TD*%
%TO.C,D33*%
X74930000Y-54229000D03*
D14*
X72390000Y-54229000D03*
%TD*%
%TO.C,D34*%
X72263000Y-62992000D03*
D15*
X74803000Y-62992000D03*
%TD*%
%TO.C,D35*%
X81026000Y-108331000D03*
D14*
X78486000Y-108331000D03*
%TD*%
D15*
%TO.C,D36*%
X80899000Y-125603000D03*
D14*
X78359000Y-125603000D03*
%TD*%
%TO.C,D37*%
X81280000Y-76454000D03*
D15*
X83820000Y-76454000D03*
%TD*%
%TO.C,D38*%
X83566000Y-92456000D03*
D14*
X81026000Y-92456000D03*
%TD*%
%TO.C,D39*%
X81280000Y-45847000D03*
D15*
X83820000Y-45847000D03*
%TD*%
%TO.C,D40*%
X83820000Y-62865000D03*
D14*
X81280000Y-62865000D03*
%TD*%
D15*
%TO.C,D41*%
X89535000Y-108458000D03*
D14*
X86995000Y-108458000D03*
%TD*%
D15*
%TO.C,D42*%
X89916000Y-116967000D03*
D14*
X87376000Y-116967000D03*
%TD*%
%TO.C,D43*%
X87503000Y-125476000D03*
D15*
X90043000Y-125476000D03*
%TD*%
%TO.C,D44*%
X92329000Y-76581000D03*
D14*
X89789000Y-76581000D03*
%TD*%
D15*
%TO.C,D45*%
X92329000Y-83947000D03*
D14*
X89789000Y-83947000D03*
%TD*%
%TO.C,D46*%
X89662000Y-92456000D03*
D15*
X92202000Y-92456000D03*
%TD*%
D14*
%TO.C,D47*%
X90043000Y-45847000D03*
D15*
X92583000Y-45847000D03*
%TD*%
%TO.C,D48*%
X92583000Y-54483000D03*
D14*
X90043000Y-54483000D03*
%TD*%
%TO.C,D49*%
X90043000Y-62865000D03*
D15*
X92583000Y-62865000D03*
%TD*%
%TO.C,D50*%
X106426000Y-45466000D03*
D14*
X103886000Y-45466000D03*
%TD*%
%TO.C,D51*%
X103759000Y-53975000D03*
D15*
X106299000Y-53975000D03*
%TD*%
%TO.C,D52*%
X106045000Y-62738000D03*
D14*
X103505000Y-62738000D03*
%TD*%
D15*
%TO.C,D53*%
X106934000Y-76581000D03*
D14*
X104394000Y-76581000D03*
%TD*%
%TO.C,D54*%
X104140000Y-83947000D03*
D15*
X106680000Y-83947000D03*
%TD*%
%TO.C,D55*%
X106934000Y-92583000D03*
D14*
X104394000Y-92583000D03*
%TD*%
%TO.C,D56*%
X101854000Y-108458000D03*
D15*
X104394000Y-108458000D03*
%TD*%
D14*
%TO.C,D57*%
X101600000Y-116459000D03*
D15*
X104140000Y-116459000D03*
%TD*%
%TO.C,D58*%
X104394000Y-125222000D03*
D14*
X101854000Y-125222000D03*
%TD*%
%TO.C,D59*%
X113411000Y-45593000D03*
D15*
X115951000Y-45593000D03*
%TD*%
D14*
%TO.C,D60*%
X112776000Y-62738000D03*
D15*
X115316000Y-62738000D03*
%TD*%
D14*
%TO.C,D61*%
X112522000Y-76581000D03*
D15*
X115062000Y-76581000D03*
%TD*%
D14*
%TO.C,D62*%
X112776000Y-92710000D03*
D15*
X115316000Y-92710000D03*
%TD*%
%TO.C,D63*%
X114300000Y-108585000D03*
D14*
X111760000Y-108585000D03*
%TD*%
%TO.C,D64*%
X111252000Y-125222000D03*
D15*
X113792000Y-125222000D03*
%TD*%
%TO.C,D65*%
X124587000Y-45466000D03*
D14*
X122047000Y-45466000D03*
%TD*%
%TO.C,D66*%
X122047000Y-53975000D03*
D15*
X124587000Y-53975000D03*
%TD*%
%TO.C,D67*%
X124460000Y-62611000D03*
D14*
X121920000Y-62611000D03*
%TD*%
D15*
%TO.C,D68*%
X122936000Y-77216000D03*
D14*
X120396000Y-77216000D03*
%TD*%
%TO.C,D69*%
X120904000Y-84328000D03*
D15*
X123444000Y-84328000D03*
%TD*%
%TO.C,D70*%
X123190000Y-92583000D03*
D14*
X120650000Y-92583000D03*
%TD*%
%TO.C,D71*%
X121031000Y-108331000D03*
D15*
X123571000Y-108331000D03*
%TD*%
D14*
%TO.C,D72*%
X120904000Y-116205000D03*
D15*
X123444000Y-116205000D03*
%TD*%
%TO.C,D73*%
X123571000Y-125222000D03*
D14*
X121031000Y-125222000D03*
%TD*%
D11*
%TO.C,J1*%
X65405000Y-170196000D03*
D10*
X65405000Y-171196000D03*
X64405000Y-170196000D03*
X64405000Y-171196000D03*
X63405000Y-170196000D03*
X63405000Y-171196000D03*
%TD*%
D16*
%TO.C,R1*%
X89027000Y-152273000D03*
D17*
X89027000Y-149733000D03*
%TD*%
D16*
%TO.C,R2*%
X86233000Y-156972000D03*
D17*
X86233000Y-159512000D03*
%TD*%
%TO.C,R3*%
X118110000Y-148590000D03*
D16*
X118110000Y-151130000D03*
%TD*%
%TO.C,R4*%
X113030000Y-151130000D03*
D17*
X113030000Y-148590000D03*
%TD*%
%TO.C,R5*%
X107950000Y-148590000D03*
D16*
X107950000Y-151130000D03*
%TD*%
D17*
%TO.C,R6*%
X104140000Y-148590000D03*
D16*
X104140000Y-151130000D03*
%TD*%
%TO.C,R7*%
X99060000Y-151130000D03*
D17*
X99060000Y-148590000D03*
%TD*%
%TO.C,R8*%
X93980000Y-148590000D03*
D16*
X93980000Y-151130000D03*
%TD*%
D18*
%TO.C,SW1*%
X89968000Y-165191000D03*
D19*
X89968000Y-160691000D03*
D18*
X96468000Y-165191000D03*
X96468000Y-160691000D03*
%TD*%
%TO.C,SW2*%
X48185000Y-56098000D03*
D19*
X48185000Y-51598000D03*
D18*
X54685000Y-56098000D03*
X54685000Y-51598000D03*
%TD*%
%TO.C,SW3*%
X48058000Y-86959000D03*
D19*
X48058000Y-82459000D03*
D18*
X54558000Y-86959000D03*
X54558000Y-82459000D03*
%TD*%
%TO.C,SW4*%
X53542000Y-114590000D03*
X53542000Y-119090000D03*
D19*
X47042000Y-114590000D03*
D18*
X47042000Y-119090000D03*
%TD*%
%TO.C,SW5*%
X85927000Y-51852000D03*
X85927000Y-56352000D03*
D19*
X79427000Y-51852000D03*
D18*
X79427000Y-56352000D03*
%TD*%
%TO.C,SW6*%
X85800000Y-81697000D03*
X85800000Y-86197000D03*
D19*
X79300000Y-81697000D03*
D18*
X79300000Y-86197000D03*
%TD*%
%TO.C,SW7*%
X82879000Y-114717000D03*
X82879000Y-119217000D03*
D19*
X76379000Y-114717000D03*
D18*
X76379000Y-119217000D03*
%TD*%
%TO.C,SW8*%
X117550000Y-51725000D03*
X117550000Y-56225000D03*
D19*
X111050000Y-51725000D03*
D18*
X111050000Y-56225000D03*
%TD*%
%TO.C,SW9*%
X110415000Y-86070000D03*
D19*
X110415000Y-81570000D03*
D18*
X116915000Y-86070000D03*
X116915000Y-81570000D03*
%TD*%
%TO.C,SW10*%
X108891000Y-118582000D03*
D19*
X108891000Y-114082000D03*
D18*
X115391000Y-118582000D03*
X115391000Y-114082000D03*
%TD*%
D20*
%TO.C,Y1*%
X50165000Y-160528000D03*
X50165000Y-165408000D03*
%TD*%
M02*
